# xmcd CD database file
# Copyright (C) 1993-1998 Ti Kan
# 
# Track frame offsets:
#     150
#     14202
#     32215
#     55020
#     74472
#     86437
#     99157
#     111287
#     134537
#     149380
#     161540
#     191842
#     208497
#     226590
# 
# Disc length: 3326 seconds
# 
# Revision: 1
# Processed by: cddbd v1.4b41PL1 Copyright (c) Steve Scherf et al.
# Submitted via: DiscPlay 4.0.4
# 
DISCID=ca0cfc0e
DTITLE=Muddy Waters - The Muddy Waters Collection
DYEAR=1900
DGENRE=
TTITLE0=Where's My Woman Been
TTITLE1=Blow Wind Blow
TTITLE2=Howlin' Wolf
TTITLE3=Can't Get No Grindin'
TTITLE4=Trouble No More
TTITLE5=I'm Your Hoochie Coochie Man
TTITLE6=Baby Please Don't Go
TTITLE7=Mannish Boy
TTITLE8=Everything Gonna Be Alright
TTITLE9=Got My Mojo Working
TTITLE10=Honky Tonk
TTITLE11=Off The Wall
TTITLE12=Garbage Man
TTITLE13=Long Distance Call
EXTD=
EXTT0=
EXTT1=
EXTT2=
EXTT3=
EXTT4=
EXTT5=
EXTT6=
EXTT7=
EXTT8=
EXTT9=
EXTT10=
EXTT11=
EXTT12=
EXTT13=
PLAYORDER=
